<svg width="480" height="380" viewBox="0 0 480 380" fill="none" xmlns="http://www.w3.org/2000/svg">
<g filter="url(#filter0_d_4453_158)">
<rect x="25" y="25" width="430" height="330" rx="10" fill="white"/>
</g>
<path d="M166.102 260H174.317C178.11 260 180.454 257.929 180.454 255.057C180.454 252.594 178.638 250.983 176.397 250.898V250.727C178.417 250.327 179.772 248.835 179.772 246.909C179.772 244.25 177.658 242.545 173.67 242.545H166.102V260ZM170.84 256.216V252.534H173.124C174.565 252.534 175.442 253.216 175.442 254.443C175.442 255.611 174.65 256.216 173.056 256.216H170.84ZM170.84 249.602V246.261H172.852C174.028 246.261 174.897 246.858 174.897 247.932C174.897 249.006 174.028 249.602 172.783 249.602H170.84ZM186.633 250.455V246.909H182.201V260H188.849C192.582 260 194.866 258.219 194.883 255.295C194.866 252.287 192.582 250.455 188.849 250.455H186.633ZM195.837 260H200.542V246.909H195.837V260ZM186.633 253.966H188.849C189.812 253.966 190.502 254.503 190.519 255.261C190.502 255.977 189.812 256.489 188.849 256.489H186.633V253.966ZM210.565 264.892C213.854 264.892 215.397 263.239 216.121 261.091L220.894 246.909H215.951L213.803 255.977H213.667L211.553 246.909H206.644L211.246 260.58L211.144 260.818C210.761 261.491 209.917 261.5 208.758 261.091L207.735 264.432C208.468 264.722 209.482 264.892 210.565 264.892ZM228.141 260.239C232.018 260.239 234.396 258.014 234.447 254.545H230.084C229.982 255.918 229.24 256.659 228.209 256.659C226.973 256.659 226.163 255.602 226.163 253.455C226.163 251.307 226.973 250.25 228.209 250.25C229.249 250.25 229.956 250.991 230.084 252.364H234.447C234.422 248.955 231.993 246.739 228.141 246.739C223.879 246.739 221.357 249.466 221.357 253.489C221.357 257.511 223.879 260.239 228.141 260.239ZM236.388 260H240.752V250.42H244.161V260H248.593V246.909H236.388V260ZM257.263 260.239C260.893 260.239 263.229 258.5 263.672 255.773H259.376C259.104 256.514 258.328 256.932 257.365 256.932C255.967 256.932 255.149 256.011 255.149 254.75V254.545H263.672V253.455C263.672 249.287 261.115 246.739 257.161 246.739C253.104 246.739 250.513 249.432 250.513 253.489C250.513 257.724 253.07 260.239 257.263 260.239ZM255.149 251.955C255.175 250.821 256.112 250.045 257.263 250.045C258.43 250.045 259.317 250.83 259.342 251.955H255.149ZM265.592 246.909V260H284.614V246.909H280.183V256.455H277.319V246.909H272.887V256.455H270.023V246.909H265.592ZM291.305 246.909H286.873V260H291.305V255.159H294.577V260H298.975V246.909H294.577V251.648H291.305V246.909ZM307.523 260.239C311.785 260.239 314.308 257.511 314.308 253.489C314.308 249.466 311.785 246.739 307.523 246.739C303.262 246.739 300.739 249.466 300.739 253.489C300.739 257.511 303.262 260.239 307.523 260.239ZM307.558 256.761C306.296 256.761 305.546 255.509 305.546 253.455C305.546 251.401 306.296 250.148 307.558 250.148C308.751 250.148 309.501 251.401 309.501 253.455C309.501 255.509 308.751 256.761 307.558 256.761ZM106.364 285.045C106.466 287.884 108.946 289.239 112.33 289.239C115.79 289.239 118.261 287.849 118.261 285.386C118.261 283.435 116.736 282.412 115.057 282.318V282.182C116.94 281.773 117.92 280.784 117.92 279.455C117.92 277.034 115.807 275.739 112.295 275.739C109.227 275.739 106.739 277.205 106.739 279.727H111.17C111.17 279.165 111.724 278.773 112.5 278.773C113.276 278.773 113.83 279.25 113.83 279.932C113.83 280.528 113.267 280.955 112.466 280.955H110.83V283.716H112.466C113.284 283.716 113.864 284.21 113.864 284.909C113.864 285.651 113.224 286.17 112.33 286.17C111.435 286.17 110.795 285.702 110.795 285.045H106.364ZM123.739 289.205C125.444 289.205 126.731 288.625 127.523 287.159H127.626V289H132.023V280.034C132.023 277.614 129.731 275.739 125.989 275.739C122.077 275.739 120.151 277.784 119.989 280.17H124.319C124.43 279.361 125.026 278.977 125.921 278.977C126.739 278.977 127.319 279.352 127.319 280.034V280.068C127.319 280.827 126.484 281.065 124.285 281.227C121.583 281.423 119.478 282.514 119.478 285.386C119.478 287.994 121.234 289.205 123.739 289.205ZM125.273 286.239C124.472 286.239 123.91 285.847 123.91 285.114C123.91 284.44 124.387 283.92 125.478 283.75C126.228 283.631 126.859 283.477 127.353 283.273V284.364C127.353 285.557 126.339 286.239 125.273 286.239ZM134.271 293.909H138.976V286.852H139.044C139.589 288.182 140.851 289.17 142.692 289.17C145.487 289.17 147.839 286.989 147.839 282.455C147.839 277.716 145.317 275.739 142.726 275.739C140.783 275.739 139.555 276.864 139.044 278.193H138.942V275.909H134.271V293.909ZM138.874 282.455C138.874 280.511 139.658 279.352 140.953 279.352C142.249 279.352 142.999 280.511 142.999 282.455C142.999 284.398 142.249 285.557 140.953 285.557C139.658 285.557 138.874 284.364 138.874 282.455ZM156.083 289.239C159.714 289.239 162.049 287.5 162.492 284.773H158.197C157.924 285.514 157.148 285.932 156.185 285.932C154.788 285.932 153.969 285.011 153.969 283.75V283.545H162.492V282.455C162.492 278.287 159.935 275.739 155.981 275.739C151.924 275.739 149.333 278.432 149.333 282.489C149.333 286.724 151.89 289.239 156.083 289.239ZM153.969 280.955C153.995 279.821 154.933 279.045 156.083 279.045C157.251 279.045 158.137 279.83 158.163 280.955H153.969ZM173.957 275.909H164.412V289H168.946V279.42H173.957V275.909ZM180.117 283V275.909H175.685V289H180.117L183.765 281.875V289H188.197V275.909H183.765L180.117 283ZM196.898 289.239C200.776 289.239 203.154 287.014 203.205 283.545H198.842C198.739 284.918 197.998 285.659 196.967 285.659C195.731 285.659 194.921 284.602 194.921 282.455C194.921 280.307 195.731 279.25 196.967 279.25C198.006 279.25 198.714 279.991 198.842 281.364H203.205C203.18 277.955 200.751 275.739 196.898 275.739C192.637 275.739 190.114 278.466 190.114 282.489C190.114 286.511 192.637 289.239 196.898 289.239ZM204.358 279.42H208.449V289H212.881V279.42H217.04V275.909H204.358V279.42ZM218.787 293.909H223.491V286.852H223.56C224.105 288.182 225.366 289.17 227.207 289.17C230.003 289.17 232.355 286.989 232.355 282.455C232.355 277.716 229.832 275.739 227.241 275.739C225.298 275.739 224.071 276.864 223.56 278.193H223.457V275.909H218.787V293.909ZM223.389 282.455C223.389 280.511 224.173 279.352 225.469 279.352C226.764 279.352 227.514 280.511 227.514 282.455C227.514 284.398 226.764 285.557 225.469 285.557C224.173 285.557 223.389 284.364 223.389 282.455ZM238.758 283V275.909H234.326V289H238.758L242.406 281.875V289H246.837V275.909H242.406L238.758 283ZM249.232 293.909H253.937V286.852H254.005C254.55 288.182 255.812 289.17 257.653 289.17C260.448 289.17 262.8 286.989 262.8 282.455C262.8 277.716 260.278 275.739 257.687 275.739C255.744 275.739 254.516 276.864 254.005 278.193H253.903V275.909H249.232V293.909ZM253.835 282.455C253.835 280.511 254.619 279.352 255.914 279.352C257.21 279.352 257.96 280.511 257.96 282.455C257.96 284.398 257.21 285.557 255.914 285.557C254.619 285.557 253.835 284.364 253.835 282.455ZM271.078 289.239C275.339 289.239 277.862 286.511 277.862 282.489C277.862 278.466 275.339 275.739 271.078 275.739C266.817 275.739 264.294 278.466 264.294 282.489C264.294 286.511 266.817 289.239 271.078 289.239ZM271.112 285.761C269.851 285.761 269.101 284.509 269.101 282.455C269.101 280.401 269.851 279.148 271.112 279.148C272.305 279.148 273.055 280.401 273.055 282.455C273.055 284.509 272.305 285.761 271.112 285.761ZM279.771 289H286.385C290.067 289 292.044 287.773 292.044 285.386C292.044 283.886 290.817 282.352 287.851 282.216C289.999 281.875 291.158 280.784 291.158 279.489C291.158 277.102 289.01 275.909 285.499 275.909H279.771V289ZM284.135 285.693V283.614H286.385C287.143 283.614 287.612 284.014 287.612 284.67C287.612 285.31 287.143 285.693 286.385 285.693H284.135ZM284.135 281.227V279.318H285.499C286.3 279.318 286.794 279.676 286.794 280.273C286.794 280.869 286.359 281.227 285.635 281.227H284.135ZM297.505 289.205C299.21 289.205 300.496 288.625 301.289 287.159H301.391V289H305.789V280.034C305.789 277.614 303.496 275.739 299.755 275.739C295.843 275.739 293.917 277.784 293.755 280.17H298.085C298.195 279.361 298.792 278.977 299.687 278.977C300.505 278.977 301.085 279.352 301.085 280.034V280.068C301.085 280.827 300.249 281.065 298.05 281.227C295.349 281.423 293.244 282.514 293.244 285.386C293.244 287.994 294.999 289.205 297.505 289.205ZM299.039 286.239C298.238 286.239 297.675 285.847 297.675 285.114C297.675 284.44 298.153 283.92 299.244 283.75C299.994 283.631 300.624 283.477 301.119 283.273V284.364C301.119 285.557 300.104 286.239 299.039 286.239ZM307.526 289H308.889C311.582 289 313.491 287.432 313.73 282.966L313.935 279.42H316.116V289H320.548V275.909H309.776L309.571 281.705C309.469 284.295 308.923 285.455 307.901 285.455H307.491L307.526 289ZM327.234 283V275.909H322.803V289H327.234L330.882 281.875V289H335.314V275.909H330.882L327.234 283ZM344.016 289.239C347.893 289.239 350.271 287.014 350.322 283.545H345.959C345.857 284.918 345.115 285.659 344.084 285.659C342.848 285.659 342.038 284.602 342.038 282.455C342.038 280.307 342.848 279.25 344.084 279.25C345.124 279.25 345.831 279.991 345.959 281.364H350.322C350.297 277.955 347.868 275.739 344.016 275.739C339.754 275.739 337.232 278.466 337.232 282.489C337.232 286.511 339.754 289.239 344.016 289.239ZM356.695 279.455V275.909H352.263V289H358.911C362.644 289 364.928 287.219 364.945 284.295C364.928 281.287 362.644 279.455 358.911 279.455H356.695ZM356.695 282.966H358.911C359.874 282.966 360.565 283.503 360.582 284.261C360.565 284.977 359.874 285.489 358.911 285.489H356.695V282.966ZM372.366 271.545H367.594L368.037 283.545H371.923L372.366 271.545ZM369.98 289.273C371.233 289.273 372.349 288.216 372.366 286.886C372.349 285.591 371.233 284.534 369.98 284.534C368.659 284.534 367.577 285.591 367.594 286.886C367.577 288.216 368.659 289.273 369.98 289.273Z" fill="black"/>
<path fill-rule="evenodd" clip-rule="evenodd" d="M297 145C297 176.48 271.48 202 240 202C208.52 202 183 176.48 183 145C183 113.52 208.52 88 240 88C271.48 88 297 113.52 297 145ZM300 145C300 178.137 273.137 205 240 205C206.863 205 180 178.137 180 145C180 111.863 206.863 85 240 85C273.137 85 300 111.863 300 145ZM237.55 161.888L266.768 133.888L261.232 128.112L234.428 153.8L219.35 142.856L214.65 149.331L232.433 162.237L235.138 164.2L237.55 161.888Z" fill="black"/>
<defs>
<filter id="filter0_d_4453_158" x="0" y="0" width="480" height="380" filterUnits="userSpaceOnUse" color-interpolation-filters="sRGB">
<feFlood flood-opacity="0" result="BackgroundImageFix"/>
<feColorMatrix in="SourceAlpha" type="matrix" values="0 0 0 0 0 0 0 0 0 0 0 0 0 0 0 0 0 0 127 0" result="hardAlpha"/>
<feOffset/>
<feGaussianBlur stdDeviation="12.5"/>
<feColorMatrix type="matrix" values="0 0 0 0 0 0 0 0 0 0 0 0 0 0 0 0 0 0 0.15 0"/>
<feBlend mode="normal" in2="BackgroundImageFix" result="effect1_dropShadow_4453_158"/>
<feBlend mode="normal" in="SourceGraphic" in2="effect1_dropShadow_4453_158" result="shape"/>
</filter>
</defs>
</svg>
