<svg width="480" height="380" viewBox="0 0 480 380" fill="none" xmlns="http://www.w3.org/2000/svg">
<g filter="url(#filter0_d_4453_199)">
<rect x="25" y="25" width="430" height="330" rx="10" fill="white"/>
</g>
<path d="M111.026 242.545V248.034C111.017 252.091 114.085 254.034 118.696 254.034C118.909 254.034 120.273 253.983 121.253 253.881V260H125.855V242.545H121.253V250.276C120.349 250.352 119.097 250.386 118.696 250.386C116.335 250.386 115.594 249.67 115.594 248.034V242.545H111.026ZM128.538 250.42H132.629V260H137.06V250.42H141.219V246.909H128.538V250.42ZM148.922 260.239C153.183 260.239 155.706 257.511 155.706 253.489C155.706 249.466 153.183 246.739 148.922 246.739C144.661 246.739 142.138 249.466 142.138 253.489C142.138 257.511 144.661 260.239 148.922 260.239ZM148.956 256.761C147.695 256.761 146.945 255.509 146.945 253.455C146.945 251.401 147.695 250.148 148.956 250.148C150.149 250.148 150.899 251.401 150.899 253.455C150.899 255.509 150.149 256.761 148.956 256.761ZM166.206 251.273H158.024V254.818H166.206V251.273ZM168.358 250.42H172.449V260H176.881V250.42H181.04V246.909H168.358V250.42ZM188.742 260.239C193.004 260.239 195.526 257.511 195.526 253.489C195.526 249.466 193.004 246.739 188.742 246.739C184.481 246.739 181.958 249.466 181.958 253.489C181.958 257.511 184.481 260.239 188.742 260.239ZM188.776 256.761C187.515 256.761 186.765 255.509 186.765 253.455C186.765 251.401 187.515 250.148 188.776 250.148C189.969 250.148 190.719 251.401 190.719 253.455C190.719 255.509 189.969 256.761 188.776 256.761ZM202.217 260H206.58V250.42H209.989V260H214.421V246.909H202.217V260ZM223.125 260.239C227.386 260.239 229.909 257.511 229.909 253.489C229.909 249.466 227.386 246.739 223.125 246.739C218.864 246.739 216.341 249.466 216.341 253.489C216.341 257.511 218.864 260.239 223.125 260.239ZM223.159 256.761C221.898 256.761 221.148 255.509 221.148 253.455C221.148 251.401 221.898 250.148 223.159 250.148C224.352 250.148 225.102 251.401 225.102 253.455C225.102 255.509 224.352 256.761 223.159 256.761ZM231.818 246.909V260H250.841V246.909H246.409V256.455H243.545V246.909H239.114V256.455H236.25V246.909H231.818ZM252.588 260H253.952C256.645 260 258.554 258.432 258.793 253.966L258.997 250.42H261.179V260H265.611V246.909H254.838L254.634 252.705C254.531 255.295 253.986 256.455 252.963 256.455H252.554L252.588 260ZM274.172 260.239C278.433 260.239 280.956 257.511 280.956 253.489C280.956 249.466 278.433 246.739 274.172 246.739C269.911 246.739 267.388 249.466 267.388 253.489C267.388 257.511 269.911 260.239 274.172 260.239ZM274.206 256.761C272.945 256.761 272.195 255.509 272.195 253.455C272.195 251.401 272.945 250.148 274.206 250.148C275.399 250.148 276.149 251.401 276.149 253.455C276.149 255.509 275.399 256.761 274.206 256.761ZM292.078 246.909H287.646V260H292.078V255.159H295.351V260H299.749V246.909H295.351V251.648H292.078V246.909ZM308.263 260.239C311.893 260.239 314.229 258.5 314.672 255.773H310.376C310.104 256.514 309.328 256.932 308.365 256.932C306.967 256.932 306.149 256.011 306.149 254.75V254.545H314.672V253.455C314.672 249.287 312.115 246.739 308.161 246.739C304.104 246.739 301.513 249.432 301.513 253.489C301.513 257.724 304.07 260.239 308.263 260.239ZM306.149 251.955C306.175 250.821 307.112 250.045 308.263 250.045C309.43 250.045 310.317 250.83 310.342 251.955H306.149ZM320.725 250.42H324.816V260H329.248V250.42H333.407V246.909H320.725V250.42ZM338.45 260.205C340.155 260.205 341.442 259.625 342.234 258.159H342.337V260H346.734V251.034C346.734 248.614 344.442 246.739 340.7 246.739C336.788 246.739 334.862 248.784 334.7 251.17H339.03C339.141 250.361 339.737 249.977 340.632 249.977C341.45 249.977 342.03 250.352 342.03 251.034V251.068C342.03 251.827 341.195 252.065 338.996 252.227C336.294 252.423 334.189 253.514 334.189 256.386C334.189 258.994 335.945 260.205 338.45 260.205ZM339.984 257.239C339.183 257.239 338.621 256.847 338.621 256.114C338.621 255.44 339.098 254.92 340.189 254.75C340.939 254.631 341.57 254.477 342.064 254.273V255.364C342.064 256.557 341.05 257.239 339.984 257.239ZM348.982 260H353.687V255.943H354.744L357.266 260H362.721L358.494 253.523L362.687 246.909H357.3L354.505 251.58H353.687V246.909H348.982V260ZM369.273 242.545H364.5L364.943 254.545H368.83L369.273 242.545ZM366.886 260.273C368.139 260.273 369.256 259.216 369.273 257.886C369.256 256.591 368.139 255.534 366.886 255.534C365.565 255.534 364.483 256.591 364.5 257.886C364.483 259.216 365.565 260.273 366.886 260.273ZM124.913 271.545H109.675V289H114.345V275.295H120.243V289H124.913V271.545ZM134.32 289.239C138.582 289.239 141.104 286.511 141.104 282.489C141.104 278.466 138.582 275.739 134.32 275.739C130.059 275.739 127.536 278.466 127.536 282.489C127.536 286.511 130.059 289.239 134.32 289.239ZM134.354 285.761C133.093 285.761 132.343 284.509 132.343 282.455C132.343 280.401 133.093 279.148 134.354 279.148C135.548 279.148 136.298 280.401 136.298 282.455C136.298 284.509 135.548 285.761 134.354 285.761ZM143.013 289H147.377V279.42H150.786V289H155.218V275.909H143.013V289ZM157.615 293.909H162.32V286.852H162.388C162.933 288.182 164.195 289.17 166.036 289.17C168.831 289.17 171.183 286.989 171.183 282.455C171.183 277.716 168.661 275.739 166.07 275.739C164.126 275.739 162.899 276.864 162.388 278.193H162.286V275.909H157.615V293.909ZM162.217 282.455C162.217 280.511 163.001 279.352 164.297 279.352C165.592 279.352 166.342 280.511 166.342 282.455C166.342 284.398 165.592 285.557 164.297 285.557C163.001 285.557 162.217 284.364 162.217 282.455ZM179.461 289.239C183.722 289.239 186.245 286.511 186.245 282.489C186.245 278.466 183.722 275.739 179.461 275.739C175.2 275.739 172.677 278.466 172.677 282.489C172.677 286.511 175.2 289.239 179.461 289.239ZM179.495 285.761C178.234 285.761 177.484 284.509 177.484 282.455C177.484 280.401 178.234 279.148 179.495 279.148C180.688 279.148 181.438 280.401 181.438 282.455C181.438 284.509 180.688 285.761 179.495 285.761ZM199.813 271.17C199.157 271.562 198.023 271.554 196.506 271.545C196.302 271.545 196.08 271.545 195.859 271.545C190.575 271.545 187.745 274.494 187.745 281.125V281.977C187.745 286.682 190.268 289.239 194.529 289.239C198.79 289.239 201.313 286.69 201.313 282.761C201.313 279.131 199.148 276.761 195.62 276.761C193.319 276.761 192.075 277.784 191.359 279.352H191.256C191.597 276.25 192.79 275.261 196.029 275.261C198.893 275.261 199.915 275.057 200.972 274.307L199.813 271.17ZM194.563 285.761C193.302 285.761 192.552 284.739 192.552 282.966C192.552 281.159 193.302 280.136 194.563 280.136C195.756 280.136 196.506 281.159 196.506 282.966C196.506 284.739 195.756 285.761 194.563 285.761ZM206.158 293.892C209.448 293.892 210.991 292.239 211.715 290.091L216.488 275.909H211.545L209.397 284.977H209.261L207.147 275.909H202.238L206.84 289.58L206.738 289.818C206.354 290.491 205.511 290.5 204.352 290.091L203.329 293.432C204.062 293.722 205.076 293.892 206.158 293.892ZM222.258 283V275.909H217.826V289H222.258L225.906 281.875V289H230.337V275.909H225.906L222.258 283ZM225.769 271.205C225.761 271.955 225.283 272.636 224.065 272.636C222.795 272.636 222.317 271.92 222.326 271.205H219.394C219.386 273.42 221.192 274.852 224.065 274.852C226.92 274.852 228.727 273.42 228.735 271.205H225.769ZM231.733 279.42H235.824V289H240.256V279.42H244.415V275.909H231.733V279.42ZM252.083 289.239C255.714 289.239 258.049 287.5 258.492 284.773H254.197C253.924 285.514 253.148 285.932 252.185 285.932C250.788 285.932 249.969 285.011 249.969 283.75V283.545H258.492V282.455C258.492 278.287 255.935 275.739 251.981 275.739C247.924 275.739 245.333 278.432 245.333 282.489C245.333 286.724 247.89 289.239 252.083 289.239ZM249.969 280.955C249.995 279.821 250.933 279.045 252.083 279.045C253.251 279.045 254.137 279.83 254.163 280.955H249.969ZM271.466 289.239C275.097 289.239 277.432 287.5 277.875 284.773H273.58C273.307 285.514 272.531 285.932 271.568 285.932C270.17 285.932 269.352 285.011 269.352 283.75V283.545H277.875V282.455C277.875 278.287 275.318 275.739 271.364 275.739C267.307 275.739 264.716 278.432 264.716 282.489C264.716 286.724 267.273 289.239 271.466 289.239ZM269.352 280.955C269.378 279.821 270.315 279.045 271.466 279.045C272.634 279.045 273.52 279.83 273.545 280.955H269.352ZM302.158 285.489H298.817V275.909H294.386V285.455H291.522V275.909H287.09V285.455H284.227V275.909H279.795V289H297.727V292.75H301.886L302.158 285.489ZM309.95 289.239C313.581 289.239 315.916 287.5 316.359 284.773H312.064C311.791 285.514 311.016 285.932 310.053 285.932C308.655 285.932 307.837 285.011 307.837 283.75V283.545H316.359V282.455C316.359 278.287 313.803 275.739 309.848 275.739C305.791 275.739 303.2 278.432 303.2 282.489C303.2 286.724 305.757 289.239 309.95 289.239ZM307.087 274.375C308.212 274.375 309.132 273.489 309.132 272.398C309.132 271.307 308.212 270.42 307.087 270.42C305.928 270.42 305.007 271.307 305.007 272.398C305.007 273.489 305.928 274.375 307.087 274.375ZM312.507 274.375C313.632 274.375 314.553 273.489 314.553 272.398C314.553 271.307 313.632 270.42 312.507 270.42C311.348 270.42 310.428 271.307 310.428 272.398C310.428 273.489 311.348 274.375 312.507 274.375ZM307.837 280.955C307.862 279.821 308.8 279.045 309.95 279.045C311.118 279.045 312.004 279.83 312.03 280.955H307.837ZM323.06 293.909H327.765V286.852H327.833C328.379 288.182 329.64 289.17 331.481 289.17C334.276 289.17 336.629 286.989 336.629 282.455C336.629 277.716 334.106 275.739 331.515 275.739C329.572 275.739 328.344 276.864 327.833 278.193H327.731V275.909H323.06V293.909ZM327.663 282.455C327.663 280.511 328.447 279.352 329.742 279.352C331.038 279.352 331.788 280.511 331.788 282.455C331.788 284.398 331.038 285.557 329.742 285.557C328.447 285.557 327.663 284.364 327.663 282.455ZM342.247 289.205C343.952 289.205 345.239 288.625 346.031 287.159H346.134V289H350.531V280.034C350.531 277.614 348.239 275.739 344.497 275.739C340.585 275.739 338.659 277.784 338.497 280.17H342.827C342.938 279.361 343.534 278.977 344.429 278.977C345.247 278.977 345.827 279.352 345.827 280.034V280.068C345.827 280.827 344.991 281.065 342.793 281.227C340.091 281.423 337.986 282.514 337.986 285.386C337.986 287.994 339.741 289.205 342.247 289.205ZM343.781 286.239C342.98 286.239 342.418 285.847 342.418 285.114C342.418 284.44 342.895 283.92 343.986 283.75C344.736 283.631 345.366 283.477 345.861 283.273V284.364C345.861 285.557 344.847 286.239 343.781 286.239ZM352.2 285.045C352.302 287.884 354.782 289.239 358.165 289.239C361.626 289.239 364.097 287.849 364.097 285.386C364.097 283.435 362.572 282.412 360.893 282.318V282.182C362.776 281.773 363.756 280.784 363.756 279.455C363.756 277.034 361.643 275.739 358.131 275.739C355.063 275.739 352.575 277.205 352.575 279.727H357.006C357.006 279.165 357.56 278.773 358.336 278.773C359.112 278.773 359.665 279.25 359.665 279.932C359.665 280.528 359.103 280.955 358.302 280.955H356.665V283.716H358.302C359.12 283.716 359.7 284.21 359.7 284.909C359.7 285.651 359.06 286.17 358.165 286.17C357.271 286.17 356.631 285.702 356.631 285.045H352.2ZM368.484 289.273C369.737 289.273 370.854 288.216 370.871 286.886C370.854 285.591 369.737 284.534 368.484 284.534C367.163 284.534 366.081 285.591 366.098 286.886C366.081 288.216 367.163 289.273 368.484 289.273Z" fill="black"/>
<path fill-rule="evenodd" clip-rule="evenodd" d="M240 202C271.48 202 297 176.48 297 145C297 113.52 271.48 88 240 88C208.52 88 183 113.52 183 145C183 176.48 208.52 202 240 202ZM240 205C273.137 205 300 178.137 300 145C300 111.863 273.137 85 240 85C206.863 85 180 111.863 180 145C180 178.137 206.863 205 240 205ZM235.05 145.707L216.666 127.322L222.322 121.665L240.707 140.05L258.385 122.373L264.042 128.029L246.364 145.707L263.335 162.678L257.678 168.334L240.707 151.364L223.029 169.042L217.373 163.385L235.05 145.707Z" fill="#FD0707"/>
<defs>
<filter id="filter0_d_4453_199" x="0" y="0" width="480" height="380" filterUnits="userSpaceOnUse" color-interpolation-filters="sRGB">
<feFlood flood-opacity="0" result="BackgroundImageFix"/>
<feColorMatrix in="SourceAlpha" type="matrix" values="0 0 0 0 0 0 0 0 0 0 0 0 0 0 0 0 0 0 127 0" result="hardAlpha"/>
<feOffset/>
<feGaussianBlur stdDeviation="12.5"/>
<feColorMatrix type="matrix" values="0 0 0 0 0 0 0 0 0 0 0 0 0 0 0 0 0 0 0.15 0"/>
<feBlend mode="normal" in2="BackgroundImageFix" result="effect1_dropShadow_4453_199"/>
<feBlend mode="normal" in="SourceGraphic" in2="effect1_dropShadow_4453_199" result="shape"/>
</filter>
</defs>
</svg>
